#!OML:ASF H:\Pregnant\Project 1\Capture day 1\Session 1\femalepreg.ASF
:FULLY-SPECIFIED
:DEGREES
1682
root 11.2883 15.7671 3.97874 25.1634 -15.4747 -1.64221
lowerback -13.3315 0.288848 -7.84681
upperback -8.17881 1.17386 -0.85388
thorax -1.34252 0.838807 3.65344
lowerneck -33.4578 3.66396 4.23408
upperneck 20.8733 2.54539 1.57863
head 12.3993 1.72228 0.438385
rclavicle -3.37934e-015 1.59028e-015
rhumerus 3.0231 19.5364 -79.8815
rradius 111.641
rwrist -38.9477
rhand -11.9961 -21.5538
rfingers 7.12502
rthumb 14.0608 -51.0582
lclavicle -3.37934e-015 1.59028e-015
lhumerus 9.64775 -22.7463 75.2042
lradius 100.703
lwrist 77.3059
lhand 4.78879 1.41312
lfingers 7.12502
lthumb 30.1685 28.9697
rfemur -58.2367 18.7711 6.47763
rtibia 41.1068
rfoot -2.90424 -9.67042
rtoes -1.16047
lfemur -34.8117 -5.82567 -24.0939
ltibia 23.5276
lfoot -10.1408 4.88679
ltoes -23.7832
1683
root 11.318 15.7656 3.93322 25.491 -15.8706 -1.82089
lowerback -13.2639 0.336844 -7.95322
upperback -8.16168 1.24235 -0.815557
thorax -1.37441 0.878607 3.7599
lowerneck -33.466 3.66446 4.21669
upperneck 20.5488 2.56939 1.54046
head 12.2714 1.72168 0.426623
rclavicle -3.13086e-014 1.11319e-014
rhumerus 0.583404 20.6021 -80.4766
rradius 110.997
rwrist -38.1281
rhand -12.9468 -22.0188
rfingers 7.12502
rthumb 13.1444 -51.5845
lclavicle -3.13086e-014 1.11319e-014
lhumerus 6.95466 -22.5687 76.2507
lradius 99.7699
lwrist 76.8904
lhand 5.29118 1.6499
lfingers 7.12502
lthumb 30.6477 29.1179
rfemur -58.683 18.7712 6.54009
rtibia 41.0284
rfoot -3.0963 -9.93553
rtoes -0.272646
lfemur -35.4784 -5.61538 -24.0084
ltibia 23.8465
lfoot -10.1242 5.07001
ltoes -23.677
1684
root 11.3468 15.7634 3.88945 25.8043 -16.2494 -1.99236
lowerback -13.1926 0.377877 -8.00927
upperback -8.13401 1.29651 -0.82521
thorax -1.3918 0.907242 3.78606
lowerneck -33.556 3.72621 4.31389
upperneck 20.2582 2.61814 1.49582
head 12.1739 1.74114 0.401077
rclavicle -1.11816e-014 -3.18055e-015
rhumerus -1.81257 21.6208 -81.2119
rradius 110.308
rwrist -37.4794
rhand -13.9895 -22.6822
rfingers 7.12502
rthumb 12.1392 -52.31
lclavicle -1.11816e-014 -3.18055e-015
lhumerus 4.30014 -22.36 77.169
lradius 98.7722
lwrist 76.4089
lhand 5.44807 1.55595
lfingers 7.12502
lthumb 30.7973 28.9959
rfemur -59.0587 18.7411 6.65347
rtibia 40.9787
rfoot -3.49622 -10.1849
rtoes 0.0909386
lfemur -36.1245 -5.41425 -23.9291
ltibia 24.1696
lfoot -10.1128 5.25049
ltoes -23.5599
1685
root 11.3749 15.7609 3.8471 26.1038 -16.6089 -2.15102
lowerback -13.1227 0.410617 -8.03678
upperback -8.08218 1.33829 -0.865885
thorax -1.37889 0.926018 3.7626
lowerneck -33.7523 3.81864 4.45963
upperneck 20.0014 2.67444 1.46217
head 12.1088 1.76986 0.3759
rclavicle -6.45056e-014 8.74653e-015
rhumerus -4.12952 22.5713 -82.0416
rradius 109.583
rwrist -37.0022
rhand -15.1169 -23.4732
rfingers 7.12502
rthumb 11.052 -53.1623
lclavicle -6.45056e-014 8.74653e-015
lhumerus 1.73512 -22.1417 77.972
lradius 97.7354
lwrist 75.9026
lhand 5.17947 1.09325
lfingers 7.12502
lthumb 30.5411 28.5812
rfemur -59.3657 18.6793 6.81156
rtibia 40.9734
rfoot -4.10216 -10.3721
rtoes 0.0357659
lfemur -36.7475 -5.22036 -23.8628
ltibia 24.4843
lfoot -10.0982 5.42139
ltoes -23.4613
1686
root 11.402 15.7586 3.80603 26.3885 -16.9492 -2.29741
lowerback -13.0472 0.438268 -8.07159
upperback -8.02434 1.37403 -0.908549
thorax -1.36208 0.941701 3.74041
lowerneck -33.9944 3.92264 4.6289
upperneck 19.7689 2.73526 1.41295
head 12.0617 1.80028 0.343088
rclavicle -2.18663e-014 7.95139e-016
rhumerus -6.4087 23.4409 -82.9151
rradius 108.834
rwrist -36.6481
rhand -16.298 -24.3096
rfingers 7.12502
rthumb 9.91263 -54.0562
lclavicle -2.18663e-014 7.95139e-016
lhumerus -0.767344 -21.9501 78.7278
lradius 96.6931
lwrist 75.4303
lhand 4.3959 0.313503
lfingers 7.12502
lthumb 29.7936 27.9379
rfemur -59.6045 18.5967 7.00602
rtibia 41.0248
rfoot -4.89475 -10.4721
rtoes -0.20576
lfemur -37.3405 -5.03455 -23.8075
ltibia 24.7783
lfoot -10.0721 5.58189
ltoes -23.3668
1687
root 11.4282 15.757 3.76614 26.6578 -17.2685 -2.43253
lowerback -12.9588 0.472841 -8.06815
upperback -7.96739 1.41375 -0.989236
thorax -1.35071 0.957279 3.65694
lowerneck -34.2162 3.99319 4.77575
upperneck 19.528 2.74678 1.41568
head 12.0061 1.81438 0.323861
rclavicle 3.19049e-014 -4.05521e-014
rhumerus -8.66687 24.1835 -83.8802
rradius 108.068
rwrist -36.3367
rhand -17.5198 -25.1207
rfingers 7.12502
rthumb 8.7338 -54.92
lclavicle 3.19049e-014 -4.05521e-014
lhumerus -3.18818 -21.8341 79.3895
lradius 95.6672
lwrist 75.0794
lhand 3.12524 -0.685298
lfingers 7.12502
lthumb 28.5802 27.1499
rfemur -59.7792 18.5133 7.21873
rtibia 41.1427
rfoot -5.81506 -10.5056
rtoes -0.50314
lfemur -37.8982 -4.86533 -23.7574
ltibia 25.0404
lfoot -10.0294 5.73523
ltoes -23.3062
